<svg xmlns="http://www.w3.org/2000/svg" width="122" height="167" viewBox="0 0 122 167" fill="none" class="mdl-js">
    <path d="M15.288 0.000280588L106.803 0.000288588C110.834 0.000288941 114.699 1.59978 117.549 4.44693C120.399 7.29407 122 11.1556 122 15.1821L122 73.6168C122.002 80.0502 119.959 86.318 116.164 91.5161L70.1333 154.505C67.3163 158.372 63.625 161.519 59.3601 163.69C55.0951 165.861 50.3772 166.995 45.5904 167L15.1968 167C11.1664 167 7.30102 165.4 4.45107 162.553C1.60111 159.706 -1.42836e-05 155.845 -1.39316e-05 151.818L-1.98645e-06 15.1821C-3.99585e-05 13.1807 0.39604 11.199 1.16545 9.35114C1.93486 7.50324 3.06244 5.82555 4.48326 4.4146C5.90409 3.00364 7.59009 1.88724 9.4444 1.12967C11.2987 0.372091 13.2847 -0.0117283 15.288 0.000280588Z" fill="black"/>
</svg>